<svg width="419" height="660" fill="none" xmlns="http://www.w3.org/2000/svg"><g filter="url(#a)"><path fill-rule="evenodd" clip-rule="evenodd" d="M88.776 55.57h191.233c18.341 0 33.208 14.235 33.208 31.795v435.27c0 17.56-14.867 31.796-33.208 31.796H88.776c-18.34 0-33.208-14.236-33.208-31.796V87.365c0-17.56 14.868-31.795 33.208-31.795Z" fill="#213648"/></g><path opacity=".596" fill-rule="evenodd" clip-rule="evenodd" d="M280.749 55H87.923c-9.003.549-17.306 4.657-24.908 12.324 4.89-4.268 13.61-9.98 25.14-9.98h192.362c11.529 0 20.25 5.712 25.139 9.98-7.602-7.667-15.905-11.775-24.907-12.324Z" fill="url(#b)" fill-opacity=".65"/><path opacity=".75" fill-rule="evenodd" clip-rule="evenodd" d="M307.999 517.671V89.981c0-11.474-4.217-15.717-6.733-18.44-2.516-2.724-2.623-4.114.992-2.057 3.615 2.056 10.845 8.047 10.845 20.498V517.67c0 12.451-7.23 18.441-10.845 20.498-3.615 2.056-3.508.667-.992-2.057s6.733-6.966 6.733-18.441Z" fill="url(#c)"/><path opacity=".75" fill-rule="evenodd" clip-rule="evenodd" d="M60.672 517.671V89.981c0-11.474 4.217-15.717 6.733-18.44 2.516-2.724 2.623-4.114-.992-2.057-3.615 2.056-10.845 8.047-10.845 20.498V517.67c0 12.451 7.23 18.441 10.845 20.498 3.615 2.056 3.508.667.992-2.057s-6.733-6.966-6.733-18.441Z" fill="url(#d)"/><path fill-rule="evenodd" clip-rule="evenodd" d="M53 158.556a2 2 0 0 1 2-2h.965a2 2 0 0 1 2 2v60.351a2 2 0 0 1-2 2H55a2 2 0 0 1-2-2v-60.351ZM310.535 211.043a2 2 0 0 1 2-2h.965a2 2 0 0 1 2 2v42.95a2 2 0 0 1-2 2h-.965a2 2 0 0 1-2-2v-42.95Z" fill="#2E423C"/><g clip-path="url(#e)"><path fill-rule="evenodd" clip-rule="evenodd" d="M161.676 67.445H87.27c-11.105 0-19.196 7.563-19.196 17.44v422.391c0 12.879 12.502 24.291 26.64 24.291h179.332c13.618 0 26.64-11.5 26.64-24.291V86.028c0-11.84-8.79-18.513-19.196-18.584h-75.586c-.286.047-5.479 2.182-7.673 7.564-2.195 5.381-6.61 9.671-11.444 9.671h-5.615c-2.298 0-8.348-2.23-11.412-9.671-3.063-7.442-7.797-7.517-8.084-7.563Z" fill="#fff"/><mask id="f" style="mask-type:alpha" maskUnits="userSpaceOnUse" x="68" y="67" width="233" height="465"><path fill-rule="evenodd" clip-rule="evenodd" d="M161.676 67.445H87.27c-11.105 0-19.196 7.563-19.196 17.44v422.391c0 12.879 12.502 24.291 26.64 24.291h179.332c13.618 0 26.64-11.5 26.64-24.291V86.028c0-11.84-8.79-18.513-19.196-18.584h-75.586c-.286.047-5.479 2.182-7.673 7.564-2.195 5.381-6.61 9.671-11.444 9.671h-5.615c-2.298 0-8.348-2.23-11.412-9.671-3.063-7.442-7.797-7.517-8.084-7.563Z" fill="#fff"/></mask><g mask="url(#f)"><path fill="url(#g)" d="M68 67.445h233v465H68z"/><path d="M147.504 196v-17.328h-4.128v-2.64c1.323 0 2.389-.123 3.2-.368.821-.256 1.435-.619 1.84-1.088a3.14 3.14 0 0 0 .72-1.712h3.104V196h-4.736Zm9.992 0V192.512c0-1.173.218-2.187.656-3.04a7.404 7.404 0 0 1 1.728-2.24c.725-.64 1.514-1.2 2.368-1.68a60.86 60.86 0 0 1 2.592-1.36 34.057 34.057 0 0 0 2.368-1.28c.725-.437 1.306-.923 1.744-1.456.437-.533.656-1.163.656-1.888 0-.928-.326-1.685-.976-2.272-.64-.587-1.52-.88-2.64-.88-1.163 0-2.15.336-2.96 1.008-.811.672-1.312 1.685-1.504 3.04h-4.464c.021-1.472.362-2.805 1.024-4 .672-1.205 1.674-2.16 3.008-2.864 1.333-.704 3.008-1.056 5.024-1.056 1.728 0 3.216.293 4.464.88 1.258.587 2.229 1.403 2.912 2.448.682 1.045 1.024 2.267 1.024 3.664 0 1.163-.214 2.165-.64 3.008a6.868 6.868 0 0 1-1.696 2.16 13.058 13.058 0 0 1-2.32 1.568c-.843.448-1.686.864-2.528 1.248-.832.384-1.6.779-2.304 1.184-.704.395-1.27.843-1.696 1.344-.427.501-.64 1.104-.64 1.808v.208h11.792V196h-16.992Zm25.208-16.144v5.008h-5.12v-5.008h5.12Zm0 11.056v4.992h-5.12v-4.992h5.12Zm13.747-18.048h4.592v14.096h3.568v3.92h-3.568V196h-4.496l.016-5.12h-10.656v-3.84l10.544-14.176Zm-6.224 14.096h6.336v-8.48l-6.336 8.48Zm25.208 9.392c-1.44 0-2.784-.277-4.032-.832-1.248-.555-2.266-1.333-3.056-2.336-.789-1.013-1.232-2.197-1.328-3.552h4.448c.192.896.619 1.627 1.28 2.192.662.555 1.494.832 2.496.832 1.11 0 2.08-.261 2.912-.784.843-.523 1.472-1.355 1.888-2.496.427-1.141.576-2.635.448-4.48a4.714 4.714 0 0 1-1.248 1.488 5.94 5.94 0 0 1-1.84.976c-.704.224-1.488.336-2.352.336-1.568 0-2.96-.293-4.176-.88-1.205-.597-2.154-1.44-2.848-2.528-.682-1.099-1.024-2.4-1.024-3.904 0-1.515.363-2.864 1.088-4.048.726-1.184 1.739-2.112 3.04-2.784 1.302-.672 2.827-1.008 4.576-1.008 1.963 0 3.654.469 5.072 1.408 1.43.928 2.523 2.251 3.28 3.968.768 1.707 1.152 3.717 1.152 6.032 0 2.763-.394 5.067-1.184 6.912-.778 1.835-1.898 3.211-3.36 4.128-1.461.907-3.205 1.36-5.232 1.36Zm.416-12.368a4.36 4.36 0 0 0 1.888-.432c.619-.299 1.126-.672 1.52-1.12.395-.448.592-.912.592-1.392.011-1.035-.154-1.92-.496-2.656-.33-.747-.8-1.317-1.408-1.712-.597-.395-1.296-.592-2.096-.592-.736 0-1.392.171-1.968.512a3.613 3.613 0 0 0-1.36 1.44c-.33.619-.496 1.333-.496 2.144 0 1.205.352 2.144 1.056 2.816.704.661 1.627.992 2.768.992Z" fill="#fff"/></g></g><g clip-path="url(#h)"><g filter="url(#i)"><rect x="75" y="222" width="218" height="87" rx="5" fill="#FBFCFE"/></g><g clip-path="url(#j)"><path d="M91.81 248v-7.23h2.66c.527 0 .998.092 1.415.275.417.18.745.447.985.8.243.353.365.785.365 1.295 0 .48-.107.89-.32 1.23-.213.34-.513.6-.9.78-.383.18-.835.27-1.355.27h-1.38V248h-1.47Zm1.455-3.71h1.355c.367 0 .667-.117.9-.35.233-.237.35-.528.35-.875 0-.36-.123-.645-.37-.855a1.33 1.33 0 0 0-.9-.32h-1.335v2.4Zm6.247 3.81c-.33 0-.627-.062-.89-.185a1.484 1.484 0 0 1-.625-.535c-.154-.237-.23-.523-.23-.86 0-.567.211-.997.635-1.29.423-.297 1.091-.45 2.005-.46l.645-.01v-.31c0-.237-.07-.418-.21-.545-.137-.13-.35-.193-.64-.19a1.388 1.388 0 0 0-.61.15c-.19.097-.32.265-.39.505h-1.215c.02-.373.128-.68.325-.92.196-.243.463-.423.8-.54.34-.12.725-.18 1.155-.18.53 0 .955.067 1.275.2.32.13.551.318.695.565.143.243.215.533.215.87V248h-1.22l-.12-.89c-.177.373-.399.632-.665.775a1.934 1.934 0 0 1-.935.215Zm.49-.96c.133 0 .261-.023.385-.07.126-.05.238-.115.335-.195.1-.083.18-.177.24-.28.06-.103.09-.21.09-.32v-.765l-.525.01c-.244.003-.47.033-.68.09-.21.053-.38.142-.51.265-.127.123-.19.29-.19.5 0 .24.083.428.25.565a.94.94 0 0 0 .605.2Zm4.362 2.51c-.354 0-.604-.03-.75-.09l-.215-.085v-.93l.51.02c.223.013.403.002.54-.035a.787.787 0 0 0 .31-.135.52.52 0 0 0 .155-.18c.03-.06.051-.108.065-.145l.095-.285-2.01-4.955h1.445l1.24 3.37 1.255-3.37h1.425l-2.095 5.2c-.18.44-.37.777-.57 1.01-.2.233-.417.393-.65.48-.23.087-.48.13-.75.13Zm3.864-1.65 2.59-7.23h1.54l2.585 7.23h-1.455l-.59-1.675h-2.6l-.605 1.675h-1.465Zm2.395-2.95h1.925l-.955-2.87-.97 2.87Zm5.406 2.95v-7.23h2.66c.526 0 .998.092 1.415.275.416.18.745.447.985.8.243.353.365.785.365 1.295 0 .48-.107.89-.32 1.23-.214.34-.514.6-.9.78-.384.18-.835.27-1.355.27h-1.38V248h-1.47Zm1.455-3.71h1.355c.366 0 .666-.117.9-.35a1.2 1.2 0 0 0 .35-.875c0-.36-.124-.645-.37-.855a1.331 1.331 0 0 0-.9-.32h-1.335v2.4Zm5.068-3.52h1.455V248h-1.455v-7.23Z" fill="#BA4270"/><path opacity=".5" d="M238.609 246.295c0 .383-.043.71-.13.98-.087.27-.242.475-.465.615-.22.14-.533.21-.94.21-.257 0-.498-.03-.725-.09a4.568 4.568 0 0 1-.445-.135l.065-.885c.103.037.222.083.355.14.137.053.305.08.505.08.327 0 .55-.09.67-.27.123-.18.185-.483.185-.91v-5.26h.925v5.525Zm3.432 1.805a2.72 2.72 0 0 1-.765-.115 1.963 1.963 0 0 1-.63-.335 1.569 1.569 0 0 1-.435-.545 1.771 1.771 0 0 1-.155-.765v-3.51h.925v3.415c0 .337.103.61.31.82.21.21.525.315.945.315.38 0 .685-.098.915-.295.233-.2.35-.497.35-.89v-3.365h.92V248h-.735l-.095-.99a1.36 1.36 0 0 1-.325.63c-.15.16-.332.278-.545.355-.21.073-.437.108-.68.105Zm5.657 0c-.36 0-.695-.055-1.005-.165a1.824 1.824 0 0 1-.765-.525c-.203-.24-.331-.545-.385-.915h.84c.047.203.13.373.25.51.124.133.277.235.46.305.184.067.384.1.6.1.347 0 .627-.065.84-.195.214-.13.32-.33.32-.6a.612.612 0 0 0-.17-.455c-.11-.117-.281-.202-.515-.255l-1.07-.265c-.416-.1-.75-.257-1-.47-.25-.213-.375-.512-.375-.895-.003-.303.069-.57.215-.8.147-.23.367-.412.66-.545.294-.133.659-.2 1.095-.2.56 0 1.012.127 1.355.38.347.25.527.618.54 1.105h-.815a.841.841 0 0 0-.335-.585c-.186-.147-.438-.22-.755-.22-.33 0-.598.067-.805.2-.206.13-.31.333-.31.61 0 .183.074.328.22.435.147.103.364.19.65.26l1.035.26c.24.063.437.147.59.25.157.103.28.218.37.345.094.127.159.26.195.4.04.137.06.268.06.395 0 .317-.08.59-.24.82a1.525 1.525 0 0 1-.68.53c-.293.123-.65.185-1.07.185Zm5.802-4.595h-1.165v3.215c0 .183.018.318.055.405.04.083.105.137.195.16.093.023.22.035.38.035h.565v.62c-.064.023-.16.043-.29.06a3.686 3.686 0 0 1-.475.025c-.357 0-.634-.048-.83-.145a.828.828 0 0 1-.415-.43 1.868 1.868 0 0 1-.115-.7v-3.245h-.84v-.675h.865l.225-1.505h.68v1.5h1.165v.68Zm8.528-2.735h.925V248h-.825l-3.88-5.7v5.7h-.925v-7.23h.885l3.82 5.62v-5.62Zm4.631 7.33c-.477 0-.894-.102-1.25-.305a2.08 2.08 0 0 1-.83-.905c-.197-.397-.295-.882-.295-1.455 0-.54.091-1.013.275-1.42.183-.407.451-.722.805-.945.356-.227.788-.34 1.295-.34.476 0 .89.105 1.24.315.353.207.626.512.82.915.193.403.29.895.29 1.475 0 .527-.09.99-.27 1.39-.177.4-.44.713-.79.94-.347.223-.777.335-1.29.335Zm0-.73c.31 0 .571-.078.785-.235a1.44 1.44 0 0 0 .485-.675c.11-.293.165-.642.165-1.045 0-.37-.049-.702-.145-.995a1.47 1.47 0 0 0-.465-.705c-.21-.173-.485-.26-.825-.26-.314 0-.579.078-.795.235a1.415 1.415 0 0 0-.495.67c-.11.293-.165.645-.165 1.055 0 .363.05.693.15.99.1.297.256.532.47.705.213.173.491.26.835.26Zm10.174-4.54-1.565 5.17h-.91l-1.18-3.815-1.12 3.815h-.905l-1.595-5.17h.855l1.185 3.975h.08l1.165-3.975h.7l1.21 3.965h.08l1.135-3.965h.865Z" fill="#36536B"/></g><path d="M91.23 257.62v-.85h5.47v.85h-2.205V264h-.93v-6.38H91.23Zm6.472 6.38v-7.43h.9v3.02c.13-.213.329-.403.596-.57.266-.17.606-.255 1.02-.255.336 0 .641.063.915.19.273.123.49.3.65.53.16.23.24.503.24.82V264h-.925v-3.51c0-.31-.107-.548-.32-.715-.21-.17-.485-.255-.826-.255-.233 0-.451.038-.654.115-.2.073-.364.187-.49.34a.876.876 0 0 0-.186.575V264h-.92Zm6.422-2.37c0 .327.054.623.16.89.11.263.275.473.495.63.224.157.502.235.835.235.33 0 .614-.077.85-.23.24-.153.394-.375.46-.665h.875a1.75 1.75 0 0 1-.42.885c-.216.24-.478.422-.785.545-.306.12-.626.18-.96.18-.483 0-.908-.105-1.275-.315a2.198 2.198 0 0 1-.86-.905c-.206-.393-.31-.865-.31-1.415 0-.543.094-1.02.28-1.43.187-.41.457-.73.81-.96.357-.23.785-.345 1.285-.345.73 0 1.29.232 1.68.695.39.46.585 1.082.585 1.865v.34h-3.705Zm.005-.625h2.81c0-.443-.113-.817-.34-1.12-.226-.303-.573-.455-1.04-.455-.323 0-.591.078-.805.235a1.394 1.394 0 0 0-.475.595c-.103.24-.153.488-.15.745Zm7.206 4.605v-6.78h.92l.01.9c.08-.14.192-.287.335-.44a1.823 1.823 0 0 1 1.365-.56c.617 0 1.12.213 1.51.64.39.427.585 1.085.585 1.975 0 .887-.191 1.568-.575 2.045-.383.473-.915.71-1.595.71a1.72 1.72 0 0 1-.785-.165 1.778 1.778 0 0 1-.525-.41 2.364 2.364 0 0 1-.315-.46v2.545h-.93Zm2.38-2.23a1.3 1.3 0 0 0 1.045-.485c.27-.327.405-.833.405-1.52 0-.587-.123-1.053-.37-1.4-.246-.35-.606-.525-1.08-.525-.48 0-.843.178-1.09.535-.246.357-.37.82-.37 1.39 0 .37.055.707.165 1.01.11.303.274.545.49.725.217.18.485.27.805.27Zm4.919.72c-.503 0-.913-.132-1.23-.395-.316-.263-.475-.632-.475-1.105 0-.573.2-1 .6-1.28.4-.28 1.042-.43 1.925-.45l.925-.025v-.405c0-.317-.096-.567-.29-.75-.19-.187-.483-.28-.88-.28a1.496 1.496 0 0 0-.785.215c-.226.137-.371.358-.435.665h-.815c.027-.503.224-.888.59-1.155.367-.27.864-.405 1.49-.405.674 0 1.177.142 1.51.425.337.283.505.695.505 1.235V264h-.79l-.065-.97c-.203.403-.458.683-.765.84a2.24 2.24 0 0 1-1.015.23Zm.28-.665c.23 0 .457-.055.68-.165.227-.11.414-.25.56-.42a.86.86 0 0 0 .225-.55v-.885l-.77.015c-.593.01-1.038.098-1.335.265-.296.163-.445.435-.445.815 0 .293.1.522.3.685.204.16.465.24.785.24Zm4.279 2.215c-.303 0-.512-.022-.625-.065l-.17-.065v-.6l.525.01c.257.01.455-.015.595-.075a.736.736 0 0 0 .315-.225 1.29 1.29 0 0 0 .155-.265l.18-.49-2.02-5.045h.935l1.525 3.99 1.515-3.99h.905l-2.18 5.56c-.2.493-.437.827-.71 1-.273.173-.588.26-.945.26Zm4.822-1.65v-5.17h.89v.75c.143-.23.338-.428.585-.595.25-.17.577-.255.98-.255.283 0 .568.072.855.215.287.143.498.353.635.63a1.79 1.79 0 0 1 .65-.61c.273-.157.582-.235.925-.235.18 0 .368.028.565.085.197.053.38.15.55.29.17.137.307.328.41.575.107.243.16.557.16.94V264h-.93v-3.29c0-.313-.05-.557-.15-.73a.81.81 0 0 0-.395-.36 1.272 1.272 0 0 0-.515-.105c-.16 0-.33.032-.51.095s-.333.17-.46.32-.19.355-.19.615V264h-.92v-3.56a.789.789 0 0 0-.165-.51.96.96 0 0 0-.405-.31c-.16-.07-.32-.105-.48-.105-.177 0-.355.037-.535.11-.177.07-.327.18-.45.33-.12.15-.18.347-.18.59V264h-.92Zm9.312-2.37c0 .327.054.623.16.89.11.263.275.473.495.63.224.157.502.235.835.235.33 0 .614-.077.85-.23.24-.153.394-.375.46-.665h.875a1.75 1.75 0 0 1-.42.885c-.216.24-.478.422-.785.545-.306.12-.626.18-.96.18-.483 0-.908-.105-1.275-.315a2.198 2.198 0 0 1-.86-.905c-.206-.393-.31-.865-.31-1.415 0-.543.094-1.02.28-1.43.187-.41.457-.73.81-.96.357-.23.785-.345 1.285-.345.73 0 1.29.232 1.68.695.39.46.585 1.082.585 1.865v.34h-3.705Zm.005-.625h2.81c0-.443-.113-.817-.34-1.12-.226-.303-.573-.455-1.04-.455-.323 0-.591.078-.805.235a1.394 1.394 0 0 0-.475.595c-.103.24-.153.488-.15.745Zm4.97 2.995v-5.17h.895v.75c.127-.217.325-.408.595-.575.27-.167.612-.25 1.025-.25.327 0 .627.065.9.195.277.13.497.333.66.61.167.273.25.627.25 1.06V264h-.925v-3.29c0-.403-.107-.702-.32-.895-.21-.197-.483-.295-.82-.295-.233 0-.452.038-.655.115a1.123 1.123 0 0 0-.495.34.851.851 0 0 0-.19.57V264h-.92Zm8.154-4.495h-1.165v3.215c0 .277.043.447.13.51.09.06.257.09.5.09h.565v.62a1.59 1.59 0 0 1-.29.06 3.686 3.686 0 0 1-.475.025c-.537 0-.898-.108-1.085-.325-.183-.217-.275-.533-.275-.95v-3.245h-.84v-.675h.865l.225-1.505h.68v1.5h1.165v.68Zm3.633 4.495v-7.43h.9v3.02c.13-.213.329-.403.595-.57.267-.17.607-.255 1.02-.255.337 0 .642.063.915.19.274.123.49.3.65.53.16.23.24.503.24.82V264h-.925v-3.51c0-.31-.106-.548-.32-.715-.21-.17-.485-.255-.825-.255-.233 0-.451.038-.655.115-.2.073-.363.187-.49.34a.878.878 0 0 0-.185.575V264h-.92Zm7.172.1c-.503 0-.913-.132-1.23-.395-.316-.263-.475-.632-.475-1.105 0-.573.2-1 .6-1.28.4-.28 1.042-.43 1.925-.45l.925-.025v-.405c0-.317-.096-.567-.29-.75-.19-.187-.483-.28-.88-.28a1.496 1.496 0 0 0-.785.215c-.226.137-.371.358-.435.665h-.815c.027-.503.224-.888.59-1.155.367-.27.864-.405 1.49-.405.674 0 1.177.142 1.51.425.337.283.505.695.505 1.235V264h-.79l-.065-.97c-.203.403-.458.683-.765.84a2.24 2.24 0 0 1-1.015.23Zm.28-.665c.23 0 .457-.055.68-.165.227-.11.414-.25.56-.42a.86.86 0 0 0 .225-.55v-.885l-.77.015c-.593.01-1.038.098-1.335.265-.296.163-.445.435-.445.815 0 .293.1.522.3.685.204.16.465.24.785.24Zm5.682.665c-.363 0-.698-.057-1.005-.17a1.88 1.88 0 0 1-.77-.52c-.203-.237-.33-.542-.38-.915h.84c.067.303.218.532.455.685.24.153.525.23.855.23.347 0 .627-.065.84-.195.213-.13.32-.33.32-.6 0-.363-.228-.6-.685-.71l-1.07-.265c-.42-.1-.755-.257-1.005-.47-.247-.213-.37-.512-.37-.895a1.39 1.39 0 0 1 .49-1.11c.33-.29.823-.435 1.48-.435.56 0 1.012.127 1.355.38.347.253.527.622.54 1.105h-.815a.867.867 0 0 0-.335-.585c-.187-.147-.438-.22-.755-.22-.33 0-.598.067-.805.2-.207.13-.31.333-.31.61a.51.51 0 0 0 .22.435c.147.103.363.19.65.26l1.035.26c.317.083.563.202.74.355.177.153.3.322.37.505s.105.36.105.53c0 .477-.175.852-.525 1.125-.35.273-.838.41-1.465.41Zm8.103 0c-.403 0-.725-.068-.965-.205a1.54 1.54 0 0 1-.54-.48 2.075 2.075 0 0 1-.245-.475l-.1 1.06h-.705v-7.43h.93v3.08c.057-.113.155-.242.295-.385.14-.143.325-.268.555-.375.233-.107.515-.16.845-.16.647 0 1.16.225 1.54.675.383.45.575 1.113.575 1.99 0 .813-.183 1.468-.55 1.965-.363.493-.908.74-1.635.74Zm-.165-.71c.417 0 .757-.162 1.02-.485.267-.327.4-.845.4-1.555 0-.603-.123-1.07-.37-1.4-.243-.333-.6-.5-1.07-.5-.513 0-.88.167-1.1.5-.22.33-.333.797-.34 1.4 0 .723.112 1.245.335 1.565.227.317.602.475 1.125.475Zm4.217-1.76c0 .327.053.623.16.89.11.263.275.473.495.63.223.157.502.235.835.235.33 0 .613-.077.85-.23a1.03 1.03 0 0 0 .46-.665h.875a1.75 1.75 0 0 1-.42.885c-.217.24-.478.422-.785.545-.307.12-.627.18-.96.18-.483 0-.908-.105-1.275-.315a2.191 2.191 0 0 1-.86-.905c-.207-.393-.31-.865-.31-1.415 0-.543.093-1.02.28-1.43.187-.41.457-.73.81-.96.357-.23.785-.345 1.285-.345.73 0 1.29.232 1.68.695.39.46.585 1.082.585 1.865v.34h-3.705Zm.005-.625h2.81c0-.443-.113-.817-.34-1.12-.227-.303-.573-.455-1.04-.455-.323 0-.592.078-.805.235a1.386 1.386 0 0 0-.475.595c-.103.24-.153.488-.15.745Zm5.63.625c0 .327.053.623.16.89.11.263.275.473.495.63.223.157.502.235.835.235.33 0 .613-.077.85-.23a1.03 1.03 0 0 0 .46-.665h.875a1.75 1.75 0 0 1-.42.885c-.217.24-.478.422-.785.545-.307.12-.627.18-.96.18-.483 0-.908-.105-1.275-.315a2.191 2.191 0 0 1-.86-.905c-.207-.393-.31-.865-.31-1.415 0-.543.093-1.02.28-1.43.187-.41.457-.73.81-.96.357-.23.785-.345 1.285-.345.73 0 1.29.232 1.68.695.39.46.585 1.082.585 1.865v.34h-3.705Zm.005-.625h2.81c0-.443-.113-.817-.34-1.12-.227-.303-.573-.455-1.04-.455-.323 0-.592.078-.805.235a1.386 1.386 0 0 0-.475.595c-.103.24-.153.488-.15.745Zm4.97 2.995v-5.17h.895v.75c.126-.217.325-.408.595-.575.27-.167.611-.25 1.025-.25.326 0 .626.065.9.195.276.13.496.333.66.61.166.273.25.627.25 1.06V264h-.925v-3.29c0-.403-.107-.702-.32-.895-.21-.197-.484-.295-.82-.295a1.83 1.83 0 0 0-.655.115 1.112 1.112 0 0 0-.495.34.851.851 0 0 0-.19.57V264h-.92Zm8.076 1.61v-6.78h.92l.01.9c.08-.14.191-.287.335-.44a1.813 1.813 0 0 1 1.365-.56c.616 0 1.12.213 1.51.64.39.427.585 1.085.585 1.975 0 .887-.192 1.568-.575 2.045-.384.473-.915.71-1.595.71-.307 0-.569-.055-.785-.165a1.753 1.753 0 0 1-.525-.41 2.279 2.279 0 0 1-.315-.46v2.545h-.93Zm2.38-2.23a1.3 1.3 0 0 0 1.045-.485c.27-.327.405-.833.405-1.52 0-.587-.124-1.053-.37-1.4-.247-.35-.607-.525-1.08-.525-.48 0-.844.178-1.09.535-.247.357-.37.82-.37 1.39 0 .37.055.707.165 1.01.11.303.273.545.49.725.216.18.485.27.805.27Zm3.557.62v-5.17h.88v.995c.13-.37.335-.645.615-.825a1.679 1.679 0 0 1 1.135-.255c.074.01.132.027.175.05v.895a.596.596 0 0 0-.195-.045 1.53 1.53 0 0 0-.195-.015c-.41-.027-.761.052-1.055.235-.293.183-.44.49-.44.92V264h-.92Zm5.815.1c-.717 0-1.292-.228-1.725-.685-.433-.457-.65-1.117-.65-1.98 0-.54.092-1.013.275-1.42.183-.407.452-.722.805-.945.353-.227.785-.34 1.295-.34.713 0 1.283.233 1.71.7.427.467.64 1.135.64 2.005 0 .527-.09.99-.27 1.39-.177.4-.44.713-.79.94-.347.223-.777.335-1.29.335Zm0-.73c.463 0 .818-.173 1.065-.52.247-.35.37-.828.37-1.435 0-.37-.05-.702-.15-.995a1.483 1.483 0 0 0-.46-.705c-.21-.173-.485-.26-.825-.26-.47 0-.83.173-1.08.52-.25.343-.375.823-.375 1.44 0 .363.05.693.15.99.1.297.257.532.47.705.213.173.492.26.835.26Zm5.62-4.64c.557 0 1.025.158 1.405.475.38.313.605.733.675 1.26h-.82a1.176 1.176 0 0 0-.395-.695c-.216-.197-.503-.295-.86-.295-.44 0-.8.16-1.08.48-.276.32-.415.81-.415 1.47 0 .597.127 1.075.38 1.435.257.357.634.535 1.13.535.354 0 .639-.1.855-.3.217-.2.347-.43.39-.69h.805c-.066.52-.291.933-.675 1.24-.38.303-.845.455-1.395.455-.466 0-.878-.102-1.235-.305a2.12 2.12 0 0 1-.84-.9c-.203-.397-.305-.883-.305-1.46 0-.537.092-1.008.275-1.415.187-.407.457-.723.81-.95.357-.227.789-.34 1.295-.34Zm3.991 2.9c0 .327.053.623.16.89.11.263.275.473.495.63.223.157.502.235.835.235.33 0 .613-.077.85-.23a1.03 1.03 0 0 0 .46-.665h.875a1.75 1.75 0 0 1-.42.885c-.217.24-.478.422-.785.545-.307.12-.627.18-.96.18-.483 0-.908-.105-1.275-.315a2.191 2.191 0 0 1-.86-.905c-.207-.393-.31-.865-.31-1.415 0-.543.093-1.02.28-1.43.187-.41.457-.73.81-.96.357-.23.785-.345 1.285-.345.73 0 1.29.232 1.68.695.39.46.585 1.082.585 1.865v.34h-3.705Zm.005-.625h2.81c0-.443-.113-.817-.34-1.12-.227-.303-.573-.455-1.04-.455-.323 0-.592.078-.805.235a1.386 1.386 0 0 0-.475.595c-.103.24-.153.488-.15.745Zm6.766 3.095a2.88 2.88 0 0 1-1.005-.17 1.874 1.874 0 0 1-.77-.52c-.204-.237-.33-.542-.38-.915h.84c.066.303.218.532.455.685.24.153.525.23.855.23.346 0 .626-.065.84-.195.213-.13.32-.33.32-.6 0-.363-.229-.6-.685-.71l-1.07-.265c-.42-.1-.755-.257-1.005-.47-.247-.213-.37-.512-.37-.895-.004-.453.16-.823.49-1.11.33-.29.823-.435 1.48-.435.56 0 1.011.127 1.355.38.346.253.526.622.54 1.105h-.815a.87.87 0 0 0-.335-.585c-.187-.147-.439-.22-.755-.22-.33 0-.599.067-.805.2-.207.13-.31.333-.31.61a.51.51 0 0 0 .22.435c.146.103.363.19.65.26l1.035.26c.316.083.563.202.74.355.176.153.3.322.37.505s.105.36.105.53c0 .477-.175.852-.525 1.125-.35.273-.839.41-1.465.41Zm5.029 0c-.363 0-.698-.057-1.005-.17a1.88 1.88 0 0 1-.77-.52c-.203-.237-.33-.542-.38-.915h.84c.067.303.218.532.455.685.24.153.525.23.855.23.347 0 .627-.065.84-.195.213-.13.32-.33.32-.6 0-.363-.228-.6-.685-.71l-1.07-.265c-.42-.1-.755-.257-1.005-.47-.247-.213-.37-.512-.37-.895a1.39 1.39 0 0 1 .49-1.11c.33-.29.823-.435 1.48-.435.56 0 1.012.127 1.355.38.347.253.527.622.54 1.105h-.815a.867.867 0 0 0-.335-.585c-.187-.147-.438-.22-.755-.22-.33 0-.598.067-.805.2-.207.13-.31.333-.31.61a.51.51 0 0 0 .22.435c.147.103.363.19.65.26l1.035.26c.317.083.563.202.74.355.177.153.3.322.37.505s.105.36.105.53c0 .477-.175.852-.525 1.125-.35.273-.838.41-1.465.41Zm3.942-2.47c0 .327.053.623.16.89.11.263.275.473.495.63.223.157.502.235.835.235.33 0 .613-.077.85-.23a1.03 1.03 0 0 0 .46-.665h.875a1.75 1.75 0 0 1-.42.885c-.217.24-.478.422-.785.545-.307.12-.627.18-.96.18-.483 0-.908-.105-1.275-.315a2.191 2.191 0 0 1-.86-.905c-.207-.393-.31-.865-.31-1.415 0-.543.093-1.02.28-1.43.187-.41.457-.73.81-.96.357-.23.785-.345 1.285-.345.73 0 1.29.232 1.68.695.39.46.585 1.082.585 1.865v.34h-3.705Zm.005-.625h2.81c0-.443-.113-.817-.34-1.12-.227-.303-.573-.455-1.04-.455-.323 0-.592.078-.805.235a1.386 1.386 0 0 0-.475.595c-.103.24-.153.488-.15.745Zm6.835 3.095c-.673 0-1.207-.23-1.6-.69-.39-.46-.585-1.132-.585-2.015 0-.807.177-1.452.53-1.935.357-.487.885-.73 1.585-.73.327 0 .605.053.835.16.233.107.42.232.56.375.143.143.243.272.3.385v-3.08h.93V264h-.705l-.1-1.06a2.075 2.075 0 0 1-.245.475c-.12.183-.3.343-.54.48-.24.137-.562.205-.965.205Zm.165-.71c.523 0 .897-.158 1.12-.475.227-.32.34-.842.34-1.565-.007-.603-.12-1.07-.34-1.4-.22-.333-.587-.5-1.1-.5-.423 0-.77.152-1.04.455-.267.3-.4.782-.4 1.445 0 .647.12 1.148.36 1.505.243.357.597.535 1.06.535Zm3.702.61v-1.18h1.1V264h-1.1Zm4.172-6.38v-.85h5.47v.85h-2.205V264h-.93v-6.38h-2.335Zm6.473 6.38v-7.43h.9v3.02c.13-.213.328-.403.595-.57.267-.17.607-.255 1.02-.255.337 0 .642.063.915.19.273.123.49.3.65.53.16.23.24.503.24.82V264h-.925v-3.51c0-.31-.107-.548-.32-.715-.21-.17-.485-.255-.825-.255-.233 0-.452.038-.655.115-.2.073-.363.187-.49.34a.878.878 0 0 0-.185.575V264h-.92Zm6.422-2.37c0 .327.053.623.16.89.11.263.275.473.495.63.223.157.501.235.835.235.33 0 .613-.077.85-.23a1.03 1.03 0 0 0 .46-.665h.875c-.064.35-.204.645-.42.885a2.1 2.1 0 0 1-.785.545c-.307.12-.627.18-.96.18-.484 0-.909-.105-1.275-.315a2.185 2.185 0 0 1-.86-.905c-.207-.393-.31-.865-.31-1.415 0-.543.093-1.02.28-1.43.186-.41.456-.73.81-.96.356-.23.785-.345 1.285-.345.73 0 1.29.232 1.68.695.39.46.585 1.082.585 1.865v.34h-3.705Zm.005-.625h2.81c0-.443-.114-.817-.34-1.12-.227-.303-.574-.455-1.04-.455-.324 0-.592.078-.805.235a1.379 1.379 0 0 0-.475.595c-.104.24-.154.488-.15.745Zm-168.488 12.5h-1.165v3.215c0 .277.043.447.13.51.09.06.257.09.5.09h.565v.62a1.59 1.59 0 0 1-.29.06 3.682 3.682 0 0 1-.475.025c-.537 0-.898-.108-1.085-.325-.183-.217-.275-.533-.275-.95v-3.245h-.84v-.675h.865l.225-1.505h.68v1.5h1.165v.68Zm3.247 4.595c-.717 0-1.292-.228-1.725-.685-.434-.457-.65-1.117-.65-1.98 0-.54.091-1.013.275-1.42.183-.407.451-.722.805-.945.353-.227.785-.34 1.295-.34.713 0 1.283.233 1.71.7.426.467.64 1.135.64 2.005 0 .527-.09.99-.27 1.39-.177.4-.44.713-.79.94-.347.223-.777.335-1.29.335Zm0-.73c.463 0 .818-.173 1.065-.52.246-.35.37-.828.37-1.435 0-.37-.05-.702-.15-.995a1.48 1.48 0 0 0-.46-.705c-.21-.173-.485-.26-.825-.26-.47 0-.83.173-1.08.52-.25.343-.375.823-.375 1.44 0 .363.05.693.15.99.1.297.256.532.47.705.213.173.491.26.835.26Zm6.021-3.865h-1.165v3.215c0 .277.043.447.13.51.09.06.256.09.5.09h.565v.62a1.61 1.61 0 0 1-.29.06 3.686 3.686 0 0 1-.475.025c-.537 0-.899-.108-1.085-.325-.184-.217-.275-.533-.275-.95v-3.245h-.84v-.675h.865l.225-1.505h.68v1.5h1.165v.68Zm2.719 4.595c-.503 0-.913-.132-1.23-.395-.317-.263-.475-.632-.475-1.105 0-.573.2-1 .6-1.28.4-.28 1.042-.43 1.925-.45l.925-.025v-.405c0-.317-.097-.567-.29-.75-.19-.187-.483-.28-.88-.28a1.493 1.493 0 0 0-.785.215c-.227.137-.372.358-.435.665h-.815c.027-.503.223-.888.59-1.155.367-.27.863-.405 1.49-.405.673 0 1.177.142 1.51.425.337.283.505.695.505 1.235V278h-.79l-.065-.97c-.203.403-.458.683-.765.84-.307.153-.645.23-1.015.23Zm.28-.665c.23 0 .457-.055.68-.165.227-.11.413-.25.56-.42a.86.86 0 0 0 .225-.55v-.885l-.77.015c-.593.01-1.038.098-1.335.265-.297.163-.445.435-.445.815 0 .293.1.522.3.685.203.16.465.24.785.24Zm5.239.63c-.373 0-.653-.065-.84-.195a.967.967 0 0 1-.375-.515 2.52 2.52 0 0 1-.09-.685v-6.1h.91v6.01c0 .263.05.46.15.59a.582.582 0 0 0 .43.21l.28.005v.6c-.166.053-.321.08-.465.08Zm5.409.035c-.504 0-.914-.132-1.23-.395-.317-.263-.475-.632-.475-1.105 0-.573.2-1 .6-1.28.4-.28 1.041-.43 1.925-.45l.925-.025v-.405c0-.317-.097-.567-.29-.75-.19-.187-.484-.28-.88-.28a1.49 1.49 0 0 0-.785.215c-.227.137-.372.358-.435.665h-.815c.026-.503.223-.888.59-1.155.366-.27.863-.405 1.49-.405.673 0 1.176.142 1.51.425.336.283.505.695.505 1.235V278h-.79l-.065-.97c-.204.403-.459.683-.765.84-.307.153-.645.23-1.015.23Zm.28-.665c.23 0 .456-.055.68-.165.226-.11.413-.25.56-.42a.871.871 0 0 0 .225-.55v-.885l-.77.015c-.594.01-1.039.098-1.335.265-.297.163-.445.435-.445.815 0 .293.1.522.3.685.203.16.465.24.785.24Zm3.934.565v-5.17h.89v.75c.144-.23.339-.428.585-.595.25-.17.577-.255.98-.255.284 0 .569.072.855.215.287.143.499.353.635.63a1.79 1.79 0 0 1 .65-.61c.274-.157.582-.235.925-.235.18 0 .369.028.565.085.197.053.38.15.55.29.17.137.307.328.41.575.107.243.16.557.16.94V278h-.93v-3.29c0-.313-.05-.557-.15-.73a.806.806 0 0 0-.395-.36 1.268 1.268 0 0 0-.515-.105c-.16 0-.33.032-.51.095s-.333.17-.46.32c-.126.15-.19.355-.19.615V278h-.92v-3.56a.789.789 0 0 0-.165-.51.948.948 0 0 0-.405-.31c-.16-.07-.32-.105-.48-.105-.176 0-.355.037-.535.11-.176.07-.326.18-.45.33-.12.15-.18.347-.18.59V278h-.92Zm10.708.1c-.717 0-1.292-.228-1.725-.685-.434-.457-.65-1.117-.65-1.98 0-.54.091-1.013.275-1.42.183-.407.451-.722.805-.945.353-.227.785-.34 1.295-.34.713 0 1.283.233 1.71.7.426.467.64 1.135.64 2.005 0 .527-.09.99-.27 1.39-.177.4-.44.713-.79.94-.347.223-.777.335-1.29.335Zm0-.73c.463 0 .818-.173 1.065-.52.246-.35.37-.828.37-1.435 0-.37-.05-.702-.15-.995a1.483 1.483 0 0 0-.46-.705c-.21-.173-.485-.26-.825-.26-.47 0-.83.173-1.08.52-.25.343-.375.823-.375 1.44 0 .363.05.693.15.99.1.297.256.532.47.705.213.173.491.26.835.26Zm5.372.73c-.36-.003-.69-.07-.99-.2-.3-.133-.542-.33-.725-.59-.18-.26-.27-.583-.27-.97v-3.51h.925v3.415c0 .337.103.61.31.82.21.21.525.315.945.315.38 0 .685-.098.915-.295.233-.2.35-.497.35-.89v-3.365h.92V278h-.735l-.095-.99c-.093.39-.283.67-.57.84-.287.17-.613.253-.98.25Zm3.891-.1v-5.17h.895v.75c.127-.217.325-.408.595-.575.27-.167.612-.25 1.025-.25.327 0 .627.065.9.195.277.13.497.333.66.61.167.273.25.627.25 1.06V278h-.925v-3.29c0-.403-.107-.702-.32-.895-.21-.197-.483-.295-.82-.295-.233 0-.452.038-.655.115a1.123 1.123 0 0 0-.495.34.851.851 0 0 0-.19.57V278h-.92Zm8.154-4.495h-1.165v3.215c0 .277.043.447.13.51.09.06.257.09.5.09h.565v.62a1.59 1.59 0 0 1-.29.06 3.686 3.686 0 0 1-.475.025c-.537 0-.898-.108-1.085-.325-.183-.217-.275-.533-.275-.95v-3.245h-.84v-.675h.865l.225-1.505h.68v1.5h1.165v.68Zm5.371 4.595c-.673 0-1.207-.23-1.6-.69-.39-.46-.585-1.132-.585-2.015 0-.807.177-1.452.53-1.935.357-.487.885-.73 1.585-.73.327 0 .605.053.835.16.233.107.42.232.56.375.143.143.243.272.3.385v-3.08h.93V278h-.705l-.1-1.06a2.075 2.075 0 0 1-.245.475c-.12.183-.3.343-.54.48-.24.137-.562.205-.965.205Zm.165-.71c.523 0 .897-.158 1.12-.475.227-.32.34-.842.34-1.565-.007-.603-.12-1.07-.34-1.4-.22-.333-.587-.5-1.1-.5-.423 0-.77.152-1.04.455-.267.3-.4.782-.4 1.445 0 .647.12 1.148.36 1.505.243.357.597.535 1.06.535Zm4.577-1.76c0 .327.054.623.16.89.11.263.275.473.495.63.224.157.502.235.835.235.33 0 .614-.077.85-.23.24-.153.394-.375.46-.665h.875a1.75 1.75 0 0 1-.42.885c-.216.24-.478.422-.785.545-.306.12-.626.18-.96.18-.483 0-.908-.105-1.275-.315a2.198 2.198 0 0 1-.86-.905c-.206-.393-.31-.865-.31-1.415 0-.543.094-1.02.28-1.43.187-.41.457-.73.81-.96.357-.23.785-.345 1.285-.345.73 0 1.29.232 1.68.695.39.46.585 1.082.585 1.865v.34h-3.705Zm.005-.625h2.81c0-.443-.113-.817-.34-1.12-.226-.303-.573-.455-1.04-.455-.323 0-.591.078-.805.235a1.394 1.394 0 0 0-.475.595c-.103.24-.153.488-.15.745Zm6.835 3.095c-.673 0-1.207-.23-1.6-.69-.39-.46-.585-1.132-.585-2.015 0-.807.177-1.452.53-1.935.357-.487.885-.73 1.585-.73.327 0 .605.053.835.16.233.107.42.232.56.375.143.143.243.272.3.385v-3.08h.93V278h-.705l-.1-1.06a2.075 2.075 0 0 1-.245.475c-.12.183-.3.343-.54.48-.24.137-.562.205-.965.205Zm.165-.71c.523 0 .897-.158 1.12-.475.227-.32.34-.842.34-1.565-.007-.603-.12-1.07-.34-1.4-.22-.333-.587-.5-1.1-.5-.423 0-.77.152-1.04.455-.267.3-.4.782-.4 1.445 0 .647.12 1.148.36 1.505.243.357.597.535 1.06.535Zm5.817.71c-.36-.003-.69-.07-.99-.2-.3-.133-.541-.33-.725-.59-.18-.26-.27-.583-.27-.97v-3.51h.925v3.415c0 .337.104.61.31.82.21.21.525.315.945.315.38 0 .685-.098.915-.295.234-.2.35-.497.35-.89v-3.365h.92V278h-.735l-.095-.99c-.093.39-.283.67-.57.84-.286.17-.613.253-.98.25Zm5.883-5.37c.557 0 1.025.158 1.405.475.38.313.605.733.675 1.26h-.82a1.18 1.18 0 0 0-.395-.695c-.217-.197-.503-.295-.86-.295-.44 0-.8.16-1.08.48-.277.32-.415.81-.415 1.47 0 .597.127 1.075.38 1.435.257.357.633.535 1.13.535.353 0 .638-.1.855-.3.217-.2.347-.43.39-.69h.805c-.067.52-.292.933-.675 1.24-.38.303-.845.455-1.395.455-.467 0-.878-.102-1.235-.305a2.107 2.107 0 0 1-.84-.9c-.203-.397-.305-.883-.305-1.46 0-.537.092-1.008.275-1.415.187-.407.457-.723.81-.95.357-.227.788-.34 1.295-.34Zm5.791.775h-1.165v3.215c0 .277.044.447.13.51.09.06.257.09.5.09h.565v.62a1.572 1.572 0 0 1-.29.06 3.675 3.675 0 0 1-.475.025c-.536 0-.898-.108-1.085-.325-.183-.217-.275-.533-.275-.95v-3.245h-.84v-.675h.865l.225-1.505h.68v1.5h1.165v.68Zm1.852 2.125c0 .327.053.623.16.89.11.263.275.473.495.63.223.157.502.235.835.235.33 0 .613-.077.85-.23a1.03 1.03 0 0 0 .46-.665h.875a1.75 1.75 0 0 1-.42.885c-.217.24-.478.422-.785.545-.307.12-.627.18-.96.18-.483 0-.908-.105-1.275-.315a2.191 2.191 0 0 1-.86-.905c-.207-.393-.31-.865-.31-1.415 0-.543.093-1.02.28-1.43.187-.41.457-.73.81-.96.357-.23.785-.345 1.285-.345.73 0 1.29.232 1.68.695.39.46.585 1.082.585 1.865v.34h-3.705Zm.005-.625h2.81c0-.443-.113-.817-.34-1.12-.227-.303-.573-.455-1.04-.455-.323 0-.592.078-.805.235a1.386 1.386 0 0 0-.475.595c-.103.24-.153.488-.15.745Zm6.835 3.095c-.674 0-1.207-.23-1.6-.69-.39-.46-.585-1.132-.585-2.015 0-.807.176-1.452.53-1.935.356-.487.885-.73 1.585-.73.326 0 .605.053.835.16.233.107.42.232.56.375.143.143.243.272.3.385v-3.08h.93V278h-.705l-.1-1.06a2.116 2.116 0 0 1-.245.475c-.12.183-.3.343-.54.48-.24.137-.562.205-.965.205Zm.165-.71c.523 0 .896-.158 1.12-.475.226-.32.34-.842.34-1.565-.007-.603-.12-1.07-.34-1.4-.22-.333-.587-.5-1.1-.5-.424 0-.77.152-1.04.455-.267.3-.4.782-.4 1.445 0 .647.12 1.148.36 1.505.243.357.596.535 1.06.535Zm9.142-4.56v.675h-1.255V278h-.93v-4.495h-1.09v-.675h1.09v-.8c0-.84.418-1.26 1.255-1.26h.975l.005.655h-.775c-.21 0-.354.057-.43.17-.077.113-.115.285-.115.515v.72h1.27Zm1.142 5.17v-5.17h.88v.995c.13-.37.335-.645.615-.825a1.679 1.679 0 0 1 1.135-.255c.074.01.132.027.175.05v.895a.596.596 0 0 0-.195-.045 1.53 1.53 0 0 0-.195-.015c-.41-.027-.761.052-1.055.235-.293.183-.44.49-.44.92V278h-.92Zm5.815.1c-.717 0-1.292-.228-1.725-.685-.433-.457-.65-1.117-.65-1.98 0-.54.092-1.013.275-1.42.183-.407.452-.722.805-.945.353-.227.785-.34 1.295-.34.713 0 1.283.233 1.71.7.427.467.64 1.135.64 2.005 0 .527-.09.99-.27 1.39-.177.4-.44.713-.79.94-.347.223-.777.335-1.29.335Zm0-.73c.463 0 .818-.173 1.065-.52.247-.35.37-.828.37-1.435 0-.37-.05-.702-.15-.995a1.483 1.483 0 0 0-.46-.705c-.21-.173-.485-.26-.825-.26-.47 0-.83.173-1.08.52-.25.343-.375.823-.375 1.44 0 .363.05.693.15.99.1.297.257.532.47.705.213.173.492.26.835.26Zm3.56.63v-5.17h.89v.75c.144-.23.339-.428.585-.595.25-.17.577-.255.98-.255.284 0 .569.072.855.215.287.143.499.353.635.63a1.79 1.79 0 0 1 .65-.61c.274-.157.582-.235.925-.235.18 0 .369.028.565.085.197.053.38.15.55.29.17.137.307.328.41.575.107.243.16.557.16.94V278h-.93v-3.29c0-.313-.05-.557-.15-.73a.806.806 0 0 0-.395-.36 1.268 1.268 0 0 0-.515-.105c-.16 0-.33.032-.51.095s-.333.17-.46.32c-.126.15-.19.355-.19.615V278h-.92v-3.56a.789.789 0 0 0-.165-.51.948.948 0 0 0-.405-.31c-.16-.07-.32-.105-.48-.105-.176 0-.355.037-.535.11-.176.07-.326.18-.45.33-.12.15-.18.347-.18.59V278h-.92Zm11.399 1.65c-.303 0-.512-.022-.625-.065l-.17-.065v-.6l.525.01c.257.01.455-.015.595-.075a.736.736 0 0 0 .315-.225 1.29 1.29 0 0 0 .155-.265l.18-.49-2.02-5.045h.935l1.525 3.99 1.515-3.99h.905l-2.18 5.56c-.2.493-.437.827-.71 1-.273.173-.588.26-.945.26Zm6.691-1.55c-.716 0-1.291-.228-1.725-.685-.433-.457-.65-1.117-.65-1.98 0-.54.092-1.013.275-1.42.184-.407.452-.722.805-.945.354-.227.785-.34 1.295-.34.714 0 1.284.233 1.71.7.427.467.64 1.135.64 2.005 0 .527-.09.99-.27 1.39a2.1 2.1 0 0 1-.79.94c-.346.223-.776.335-1.29.335Zm0-.73c.464 0 .819-.173 1.065-.52.247-.35.37-.828.37-1.435 0-.37-.05-.702-.15-.995a1.476 1.476 0 0 0-.46-.705c-.21-.173-.485-.26-.825-.26-.47 0-.83.173-1.08.52-.25.343-.375.823-.375 1.44 0 .363.05.693.15.99.1.297.257.532.47.705.214.173.492.26.835.26Zm5.373.73c-.36-.003-.69-.07-.99-.2-.3-.133-.542-.33-.725-.59-.18-.26-.27-.583-.27-.97v-3.51h.925v3.415c0 .337.103.61.31.82.21.21.525.315.945.315.38 0 .685-.098.915-.295.233-.2.35-.497.35-.89v-3.365h.92V278h-.735l-.095-.99c-.094.39-.284.67-.57.84-.287.17-.614.253-.98.25Zm3.891-.1v-5.17h.88v.995c.13-.37.335-.645.615-.825a1.674 1.674 0 0 1 1.135-.255c.073.01.131.027.175.05v.895a.596.596 0 0 0-.195-.045 1.556 1.556 0 0 0-.195-.015c-.41-.027-.762.052-1.055.235-.294.183-.44.49-.44.92V278h-.92ZM93.195 292.1c-.503 0-.913-.132-1.23-.395-.317-.263-.475-.632-.475-1.105 0-.573.2-1 .6-1.28.4-.28 1.042-.43 1.925-.45l.925-.025v-.405c0-.317-.097-.567-.29-.75-.19-.187-.483-.28-.88-.28a1.493 1.493 0 0 0-.785.215c-.227.137-.372.358-.435.665h-.815c.027-.503.223-.888.59-1.155.367-.27.863-.405 1.49-.405.673 0 1.177.142 1.51.425.337.283.505.695.505 1.235V292h-.79l-.065-.97c-.203.403-.458.683-.765.84-.307.153-.645.23-1.015.23Zm.28-.665c.23 0 .457-.055.68-.165.227-.11.413-.25.56-.42a.864.864 0 0 0 .225-.55v-.885l-.77.015c-.593.01-1.038.098-1.335.265-.297.163-.445.435-.445.815 0 .293.1.522.3.685.203.16.465.24.785.24Zm5.995-4.705c.556 0 1.025.158 1.405.475.38.313.605.733.675 1.26h-.82a1.186 1.186 0 0 0-.395-.695c-.217-.197-.504-.295-.86-.295-.44 0-.8.16-1.08.48-.277.32-.415.81-.415 1.47 0 .597.126 1.075.38 1.435.256.357.633.535 1.13.535.353 0 .638-.1.855-.3a1.2 1.2 0 0 0 .39-.69h.805c-.067.52-.292.933-.675 1.24-.38.303-.845.455-1.395.455-.467 0-.879-.102-1.236-.305a2.112 2.112 0 0 1-.84-.9c-.203-.397-.305-.883-.305-1.46 0-.537.092-1.008.276-1.415.186-.407.456-.723.81-.95.356-.227.788-.34 1.294-.34Zm5.39 0c.557 0 1.025.158 1.405.475.38.313.605.733.675 1.26h-.82a1.18 1.18 0 0 0-.395-.695c-.217-.197-.503-.295-.86-.295-.44 0-.8.16-1.08.48-.277.32-.415.81-.415 1.47 0 .597.127 1.075.38 1.435.257.357.633.535 1.13.535.353 0 .638-.1.855-.3.217-.2.347-.43.39-.69h.805c-.067.52-.292.933-.675 1.24-.38.303-.845.455-1.395.455-.467 0-.878-.102-1.235-.305a2.107 2.107 0 0 1-.84-.9c-.203-.397-.305-.883-.305-1.46 0-.537.092-1.008.275-1.415.187-.407.457-.723.81-.95.357-.227.788-.34 1.295-.34Zm5.386 5.37c-.717 0-1.292-.228-1.725-.685-.434-.457-.65-1.117-.65-1.98 0-.54.091-1.013.275-1.42.183-.407.451-.722.805-.945.353-.227.785-.34 1.295-.34.713 0 1.283.233 1.71.7.426.467.64 1.135.64 2.005 0 .527-.09.99-.27 1.39-.177.4-.44.713-.79.94-.347.223-.777.335-1.29.335Zm0-.73c.463 0 .818-.173 1.065-.52.246-.35.37-.828.37-1.435 0-.37-.05-.702-.15-.995a1.483 1.483 0 0 0-.46-.705c-.21-.173-.485-.26-.825-.26-.47 0-.83.173-1.08.52-.25.343-.375.823-.375 1.44 0 .363.05.693.15.99.1.297.256.532.47.705.213.173.491.26.835.26Zm5.372.73c-.36-.003-.69-.07-.99-.2-.3-.133-.542-.33-.725-.59-.18-.26-.27-.583-.27-.97v-3.51h.925v3.415c0 .337.103.61.31.82.21.21.525.315.945.315.38 0 .685-.098.915-.295.233-.2.35-.497.35-.89v-3.365h.92V292h-.735l-.095-.99c-.093.39-.283.67-.57.84-.287.17-.613.253-.98.25Zm3.891-.1v-5.17h.895v.75c.127-.217.325-.408.595-.575.27-.167.612-.25 1.025-.25.327 0 .627.065.9.195.277.13.497.333.66.61.167.273.25.627.25 1.06V292h-.925v-3.29c0-.403-.107-.702-.32-.895-.21-.197-.483-.295-.82-.295-.233 0-.452.038-.655.115a1.123 1.123 0 0 0-.495.34.851.851 0 0 0-.19.57V292h-.92Zm8.154-4.495h-1.165v3.215c0 .277.043.447.13.51.09.06.257.09.5.09h.565v.62a1.59 1.59 0 0 1-.29.06 3.686 3.686 0 0 1-.475.025c-.537 0-.898-.108-1.085-.325-.183-.217-.275-.533-.275-.95v-3.245h-.84v-.675h.865l.225-1.505h.68v1.5h1.165v.68Zm4.653-2.73v.96h-.945v-.96h.945Zm-.02 2.055V292h-.895v-5.17h.895Zm3.462 5.27c-.363 0-.698-.057-1.005-.17a1.887 1.887 0 0 1-.77-.52c-.203-.237-.33-.542-.38-.915h.84c.067.303.219.532.455.685.24.153.525.23.855.23.347 0 .627-.065.84-.195.214-.13.32-.33.32-.6 0-.363-.228-.6-.685-.71l-1.07-.265c-.42-.1-.755-.257-1.005-.47-.246-.213-.37-.512-.37-.895a1.39 1.39 0 0 1 .49-1.11c.33-.29.824-.435 1.48-.435.56 0 1.012.127 1.355.38.347.253.527.622.54 1.105h-.815a.863.863 0 0 0-.335-.585c-.186-.147-.438-.22-.755-.22-.33 0-.598.067-.805.2-.206.13-.31.333-.31.61 0 .183.074.328.22.435.147.103.364.19.65.26l1.035.26c.317.083.564.202.74.355.177.153.3.322.37.505s.105.36.105.53c0 .477-.175.852-.525 1.125-.35.273-.838.41-1.465.41Zm11.232-2.855c0 .583-.095 1.09-.285 1.52-.19.427-.499.757-.925.99-.424.23-.985.345-1.685.345-.704 0-1.267-.117-1.69-.35a2.086 2.086 0 0 1-.92-1.005c-.187-.433-.28-.95-.28-1.55v-4.425h1.485v4.535c0 .54.13.935.39 1.185.26.247.598.37 1.015.37.416 0 .756-.123 1.02-.37.266-.247.4-.642.4-1.185v-4.535h1.475v4.475Zm4.166 2.855a4.12 4.12 0 0 1-1.05-.135 3.382 3.382 0 0 1-.945-.405 2.374 2.374 0 0 1-.7-.675 2.031 2.031 0 0 1-.33-.95h1.495c.073.327.247.578.52.755.277.177.612.265 1.005.265.397 0 .738-.075 1.025-.225.29-.15.435-.378.435-.685a.658.658 0 0 0-.35-.61 2.924 2.924 0 0 0-.875-.305l-1.25-.255c-.547-.103-.98-.32-1.3-.65-.32-.33-.485-.773-.495-1.33-.003-.453.117-.845.36-1.175.247-.333.58-.59 1-.77.423-.18.897-.27 1.42-.27.623 0 1.147.098 1.57.295.427.193.75.457.97.79.223.33.338.698.345 1.105h-1.465c-.04-.38-.188-.647-.445-.8-.257-.153-.573-.23-.95-.23-.39 0-.7.083-.93.25-.23.163-.345.375-.345.635 0 .21.068.38.205.51.14.13.403.237.79.32l1.24.255c.44.087.792.215 1.055.385a1.847 1.847 0 0 1 .85 1.23c.043.22.065.423.065.61 0 .39-.122.742-.365 1.055-.243.31-.585.557-1.025.74-.437.18-.947.27-1.53.27Zm8.438-8.365h1.265v.995c.42.073.78.212 1.08.415.303.203.535.452.695.745.163.293.241.612.235.955l-1.475.025c-.047-.32-.154-.572-.32-.755-.167-.183-.444-.275-.83-.275-.397 0-.71.083-.94.25-.23.163-.345.375-.345.635 0 .21.07.377.21.5.143.12.411.232.805.335l1.165.285c.656.157 1.13.427 1.42.81.293.38.44.84.44 1.38 0 .547-.195 1-.585 1.36-.39.357-.919.578-1.585.665v.895h-1.26v-.89c-.684-.08-1.237-.292-1.66-.635-.42-.343-.664-.832-.73-1.465l1.52-.03c.076.33.248.582.515.755.266.17.6.255 1 .255.36 0 .655-.085.885-.255.233-.17.35-.385.35-.645 0-.267-.085-.465-.255-.595-.17-.133-.432-.24-.785-.32l-1.185-.255c-.554-.11-.995-.328-1.325-.655-.33-.327-.499-.768-.505-1.325-.004-.393.088-.74.275-1.04.19-.303.45-.552.78-.745a3.182 3.182 0 0 1 1.145-.385v-.99ZM165.21 292v-5.415h-1.29v-.825c.62 0 1.067-.087 1.34-.26a.954.954 0 0 0 .46-.73h.97V292h-1.48Zm5.788-7.33c.86 0 1.538.322 2.035.965.496.643.745 1.565.745 2.765 0 1.197-.247 2.115-.74 2.755-.49.637-1.17.955-2.04.955-.877 0-1.562-.318-2.055-.955-.49-.637-.735-1.553-.735-2.75 0-1.203.248-2.127.745-2.77.5-.643 1.181-.965 2.045-.965Zm0 6.245c.433 0 .748-.192.945-.575.2-.383.3-1.028.3-1.935 0-.923-.102-1.585-.305-1.985-.204-.4-.519-.6-.945-.6-.427 0-.745.202-.955.605-.207.403-.31 1.063-.31 1.98 0 .9.103 1.543.31 1.93.206.387.526.58.96.58Zm6.901-6.145h1.435v4.405h1.115v1.225h-1.115v1.6h-1.405l.005-1.6h-3.33v-1.2l3.295-4.43Zm-1.945 4.405h1.98v-2.65l-1.98 2.65Zm5.277 2.825v-1.59h1.6V292h-1.6Zm5.296.11c-.454 0-.875-.087-1.265-.26a2.466 2.466 0 0 1-.95-.73 1.992 1.992 0 0 1-.415-1.11h1.39c.06.28.193.508.4.685.206.173.466.26.78.26.346 0 .65-.082.91-.245.263-.163.46-.423.59-.78.133-.357.18-.823.14-1.4a1.58 1.58 0 0 1-.655.64c-.294.157-.642.235-1.045.235-.49 0-.925-.092-1.305-.275a2.174 2.174 0 0 1-.89-.79c-.214-.343-.32-.75-.32-1.22 0-.473.113-.895.34-1.265.226-.37.543-.66.95-.87.406-.21.883-.315 1.43-.315.613 0 1.141.147 1.585.44.446.29.788.703 1.025 1.24.24.533.36 1.162.36 1.885 0 1.293-.272 2.263-.815 2.91-.544.643-1.29.965-2.24.965Zm.13-3.865c.203 0 .4-.045.59-.135.193-.093.351-.21.475-.35a.656.656 0 0 0 .185-.435c.003-.487-.112-.867-.345-1.14a1.127 1.127 0 0 0-.905-.41 1.13 1.13 0 0 0-.855.355c-.227.237-.34.545-.34.925 0 .377.11.67.33.88.22.207.508.31.865.31Zm6.567-3.575c.86 0 1.538.322 2.035.965.497.643.745 1.565.745 2.765 0 1.197-.247 2.115-.74 2.755-.49.637-1.17.955-2.04.955-.877 0-1.562-.318-2.055-.955-.49-.637-.735-1.553-.735-2.75 0-1.203.248-2.127.745-2.77.5-.643 1.182-.965 2.045-.965Zm0 6.245c.433 0 .748-.192.945-.575.2-.383.3-1.028.3-1.935 0-.923-.102-1.585-.305-1.985-.203-.4-.518-.6-.945-.6-.427 0-.745.202-.955.605-.207.403-.31 1.063-.31 1.98 0 .9.103 1.543.31 1.93.207.387.527.58.96.58Zm3.765 1.085v-1.18h1.1V292h-1.1Z" fill="#36536B"/></g><defs><linearGradient id="b" x1="63.015" y1="55" x2="63.015" y2="67.324" gradientUnits="userSpaceOnUse"><stop stop-color="#454545"/><stop offset=".226" stop-color="#999"/><stop offset="1" stop-color="#fff"/></linearGradient><linearGradient id="c" x1="313.103" y1="140.747" x2="303.642" y2="140.747" gradientUnits="userSpaceOnUse"><stop stop-color="#fff" stop-opacity=".01"/><stop offset=".222" stop-color="#BABABA"/><stop offset=".547" stop-color="#fff" stop-opacity=".01"/><stop offset="1" stop-color="#fff" stop-opacity=".01"/></linearGradient><linearGradient id="d" x1="55.568" y1="140.487" x2="65.044" y2="140.487" gradientUnits="userSpaceOnUse"><stop stop-color="#fff" stop-opacity=".01"/><stop offset=".222" stop-color="#BABABA"/><stop offset=".547" stop-color="#fff" stop-opacity=".01"/><stop offset="1" stop-color="#fff" stop-opacity=".01"/></linearGradient><linearGradient id="g" x1="68.907" y1="67.445" x2="68.907" y2="528.824" gradientUnits="userSpaceOnUse"><stop stop-color="#9CB6CD"/><stop offset=".421" stop-color="#9AB3CA"/><stop offset=".717" stop-color="#557496"/><stop offset="1" stop-color="#475178"/></linearGradient><clipPath id="e"><path fill="#fff" transform="translate(68.074 67.445)" d="M0 0h233v465H0z"/></clipPath><clipPath id="h"><path fill="#fff" transform="translate(75 222)" d="M0 0h218v87H0z"/></clipPath><clipPath id="j"><path fill="#fff" transform="translate(91 238)" d="M0 0h187v11H0z"/></clipPath><filter id="a" x=".568" y=".569" width="417.649" height="658.861" filterUnits="userSpaceOnUse" color-interpolation-filters="sRGB"><feFlood flood-opacity="0" result="BackgroundImageFix"/><feColorMatrix in="SourceAlpha" values="0 0 0 0 0 0 0 0 0 0 0 0 0 0 0 0 0 0 127 0" result="hardAlpha"/><feOffset dx="25" dy="25"/><feGaussianBlur stdDeviation="40"/><feColorMatrix values="0 0 0 0 0.212302 0 0 0 0 0.32521 0 0 0 0 0.419299 0 0 0 0.300727 0"/><feBlend in2="BackgroundImageFix" result="effect1_dropShadow_0_4910"/><feBlend in="SourceGraphic" in2="effect1_dropShadow_0_4910" result="shape"/></filter><filter id="i" x="70" y="217" width="248" height="117" filterUnits="userSpaceOnUse" color-interpolation-filters="sRGB"><feFlood flood-opacity="0" result="BackgroundImageFix"/><feColorMatrix in="SourceAlpha" values="0 0 0 0 0 0 0 0 0 0 0 0 0 0 0 0 0 0 127 0" result="hardAlpha"/><feMorphology radius="10" in="SourceAlpha" result="effect1_dropShadow_0_4910"/><feOffset dx="10" dy="10"/><feGaussianBlur stdDeviation="12.5"/><feColorMatrix values="0 0 0 0 0.212302 0 0 0 0 0.32521 0 0 0 0 0.419299 0 0 0 0.25 0"/><feBlend in2="BackgroundImageFix" result="effect1_dropShadow_0_4910"/><feBlend in="SourceGraphic" in2="effect1_dropShadow_0_4910" result="shape"/></filter></defs></svg>